<svg width="70" height="70" viewBox="0 0 70 70" fill="none" xmlns="http://www.w3.org/2000/svg">
<mask id="mask0_513_89651" style="mask-type:alpha" maskUnits="userSpaceOnUse" x="0" y="0" width="70" height="70">
<rect width="70" height="70" fill="#D9D9D9"/>
</mask>
<g mask="url(#mask0_513_89651)">
<path d="M66.5696 31.7659L38.7459 33.4444L59.6063 14.9559C59.6993 14.8756 59.7966 14.7741 59.8811 14.6811C61.0649 13.3451 60.9423 11.2988 59.6063 10.115C58.2703 8.93125 56.224 9.05385 55.0402 10.3899L36.5516 31.2501L38.2301 3.42657C38.2386 3.30396 38.2386 3.16022 38.2301 3.03761C38.1244 1.25346 36.5897 -0.103691 34.8055 0.00623309C33.0214 0.11193 31.6642 1.64665 31.7699 3.4308L33.4484 31.2543L14.9598 10.3941C14.8795 10.3011 14.778 10.2038 14.685 10.1193C13.349 8.93548 11.3027 9.05808 10.1189 10.3941C8.93508 11.7301 9.05768 13.7764 10.3937 14.9602L31.2541 33.4486L3.43037 31.7701C3.30776 31.7617 3.16401 31.7617 3.0414 31.7701C1.25723 31.8758 -0.0999196 33.4106 0.00577761 35.1947C0.111475 36.9789 1.6462 38.336 3.43037 38.2303L31.2541 36.5518L10.3937 55.0403C10.3049 55.1206 10.2034 55.2221 10.1189 55.3151C8.93508 56.6511 9.05768 58.6974 10.3937 59.8812C11.7297 61.065 13.776 60.9424 14.9598 59.6064L33.4484 38.7461L31.7699 66.5696C31.7657 66.6922 31.7614 66.836 31.7699 66.9586C31.8756 68.7428 33.4103 70.0999 35.1945 69.9942C36.9787 69.8885 38.3358 68.3538 38.2301 66.5696L36.5516 38.7461L55.0402 59.6064C55.1205 59.6994 55.222 59.7966 55.315 59.8812C56.651 61.065 58.6973 60.9424 59.8811 59.6064C61.0649 58.2704 60.9423 56.2241 59.6063 55.0403L38.7459 36.5518L66.5696 38.2303C66.6922 38.2388 66.836 38.2388 66.9586 38.2303C68.7428 38.1246 70.0999 36.5899 69.9942 34.8057C69.8843 33.0174 68.3538 31.6602 66.5696 31.7659Z" fill="#1A1A1A"/>
</g>
</svg>
