<svg width="18" height="18" viewBox="0 0 18 18" fill="none" xmlns="http://www.w3.org/2000/svg">
<g clip-path="url(#clip0_513_2261)">
<path d="M17.1025 8.72294L8.49377 0.114274C8.42025 0.0409041 8.32058 -0.000182812 8.21672 6.11511e-07H1.17325C1.09576 -0.0001346 1.01997 0.0227424 0.955489 0.0657315C0.891012 0.108721 0.84075 0.169886 0.811076 0.241474C0.781402 0.313062 0.773652 0.391848 0.788807 0.467846C0.803963 0.543844 0.841342 0.613631 0.896207 0.66836L9.22864 9.00002L0.896207 17.3316C0.743194 17.4842 0.742901 17.732 0.89551 17.885C0.931941 17.9216 0.975234 17.9505 1.0229 17.9702C1.07057 17.99 1.12166 18.0001 1.17325 18H8.21672C8.26815 18.0001 8.31908 17.9901 8.36662 17.9704C8.41416 17.9508 8.45737 17.9221 8.49377 17.8857L17.1025 9.27702C17.2555 9.12442 17.2558 8.87665 17.1032 8.72364C17.1029 8.72342 17.1027 8.72319 17.1025 8.72294Z" fill="#1A1A1A"/>
</g>
<defs>
<clipPath id="clip0_513_2261">
<rect width="18" height="18" fill="white"/>
</clipPath>
</defs>
</svg>
