<svg width="18" height="18" viewBox="0 0 18 18" fill="none" xmlns="http://www.w3.org/2000/svg">
<g clip-path="url(#clip0_513_2279)">
<path d="M0.897532 8.72294L9.50623 0.114274C9.57975 0.0409041 9.67942 -0.000182812 9.78328 6.11511e-07H16.8268C16.9042 -0.0001346 16.98 0.0227424 17.0445 0.0657315C17.109 0.108721 17.1592 0.169886 17.1889 0.241474C17.2186 0.313062 17.2263 0.391848 17.2112 0.467846C17.196 0.543844 17.1587 0.613631 17.1038 0.66836L8.77136 9.00002L17.1038 17.3316C17.2568 17.4842 17.2571 17.732 17.1045 17.885C17.0681 17.9216 17.0248 17.9505 16.9771 17.9702C16.9294 17.99 16.8783 18.0001 16.8268 18H9.78328C9.73185 18.0001 9.68092 17.9901 9.63338 17.9704C9.58584 17.9508 9.54263 17.9221 9.50623 17.8857L0.897532 9.27702C0.744518 9.12442 0.744225 8.87665 0.896833 8.72364C0.897083 8.72342 0.897318 8.72319 0.897532 8.72294Z" fill="#1A1A1A"/>
</g>
<defs>
<clipPath id="clip0_513_2279">
<rect width="18" height="18" fill="white"/>
</clipPath>
</defs>
</svg>
