<svg width="22" height="22" viewBox="0 0 22 22" fill="none" xmlns="http://www.w3.org/2000/svg">
<path fill-rule="evenodd" clip-rule="evenodd" d="M10.2143 12.5714C10.2143 12.363 10.1315 12.1632 9.98415 12.0158C9.8368 11.8685 9.63695 11.7857 9.42857 11.7857H5.89128C4.74565 11.7859 3.647 12.2411 2.83691 13.0512C2.02683 13.8613 1.57163 14.9599 1.57143 16.1056V16.1087C1.57163 17.2543 2.02683 18.353 2.83691 19.1631C3.647 19.9732 4.74565 20.4283 5.89128 20.4286H5.89443C7.04006 20.4283 8.13871 19.9732 8.9488 19.1631C9.75888 18.353 10.2141 17.2543 10.2143 16.1087V12.5714ZM20.4286 5.89127C20.4284 4.74564 19.9732 3.64698 19.1631 2.8369C18.353 2.02681 17.2543 1.57162 16.1087 1.57141H16.1056C14.9599 1.57162 13.8613 2.02681 13.0512 2.8369C12.2411 3.64698 11.7859 4.74564 11.7857 5.89127V9.42856C11.7857 9.63694 11.8685 9.83679 12.0158 9.98414C12.1632 10.1315 12.363 10.2143 12.5714 10.2143H16.1071C17.2533 10.2143 18.3524 9.75898 19.1629 8.94855C19.9733 8.13813 20.4286 7.03895 20.4286 5.89284V5.89127ZM20.4286 16.1056C20.4284 14.9599 19.9732 13.8613 19.1631 13.0512C18.353 12.2411 17.2543 11.7859 16.1087 11.7857H12.5714C12.363 11.7857 12.1632 11.8685 12.0158 12.0158C11.8685 12.1632 11.7857 12.363 11.7857 12.5714V16.1087C11.7859 17.2543 12.2411 18.353 13.0512 19.1631C13.8613 19.9732 14.9599 20.4283 16.1056 20.4286H16.1087C17.2543 20.4283 18.353 19.9732 19.1631 19.1631C19.9732 18.353 20.4284 17.2543 20.4286 16.1087V16.1056ZM10.2143 5.89127C10.2141 4.74564 9.75888 3.64698 8.9488 2.8369C8.13871 2.02681 7.04006 1.57162 5.89443 1.57141H5.89128C4.74565 1.57162 3.647 2.02681 2.83691 2.8369C2.02683 3.64698 1.57163 4.74564 1.57143 5.89127V5.89284C1.57143 7.03895 2.02672 8.13813 2.83714 8.94855C3.64757 9.75898 4.74674 10.2143 5.89286 10.2143H9.42857C9.63695 10.2143 9.8368 10.1315 9.98415 9.98414C10.1315 9.83679 10.2143 9.63694 10.2143 9.42856V5.89127Z" fill="white"/>
</svg>
