<svg width="10" height="10" viewBox="0 0 10 10" fill="none" xmlns="http://www.w3.org/2000/svg">
<mask id="mask0_513_118778" style="mask-type:alpha" maskUnits="userSpaceOnUse" x="0" y="0" width="10" height="10">
<rect width="10" height="10" fill="#D9D9D9"/>
</mask>
<g mask="url(#mask0_513_118778)">
<path fill-rule="evenodd" clip-rule="evenodd" d="M8.62069 8.62069H1.37931V7.24138C1.37931 7.14621 1.30206 7.06897 1.2069 7.06897H0.172414C0.126694 7.06899 0.0828521 7.08716 0.050523 7.11949C0.0181939 7.15182 2.19282e-05 7.19566 0 7.24138V9.05034C0 9.57482 0.42518 10 0.949662 10H9.05034C9.57482 10 10 9.57482 10 9.05034V7.24138C10 7.14621 9.92275 7.06897 9.82759 7.06897H8.7931C8.74738 7.06899 8.70354 7.08716 8.67121 7.11949C8.63888 7.15182 8.62071 7.19566 8.62069 7.24138V8.62069ZM3.7931 3.96552H1.55172C1.51797 3.96549 1.48494 3.97538 1.45675 3.99396C1.42856 4.01253 1.40645 4.03898 1.39316 4.07001C1.37986 4.10104 1.37597 4.13529 1.38197 4.16851C1.38797 4.20173 1.40359 4.23246 1.42689 4.25689L4.87517 7.87758C4.89127 7.89448 4.91064 7.90793 4.9321 7.91713C4.95355 7.92632 4.97666 7.93106 5 7.93106C5.02334 7.93106 5.04645 7.92632 5.0679 7.91713C5.08936 7.90793 5.10873 7.89448 5.12483 7.87758L8.57311 4.25689C8.59641 4.23246 8.61203 4.20173 8.61803 4.16851C8.62403 4.13529 8.62014 4.10104 8.60684 4.07001C8.59355 4.03898 8.57143 4.01253 8.54325 3.99396C8.51506 3.97538 8.48203 3.96549 8.44828 3.96552H6.2069V0.172414C6.2069 0.077249 6.12965 0 6.03448 0H3.96552C3.9198 2.19282e-05 3.87596 0.0181939 3.84363 0.050523C3.8113 0.0828522 3.79313 0.126694 3.7931 0.172414V3.96552Z" fill="#1A1A1A"/>
</g>
</svg>
