<svg width="24" height="24" viewBox="0 0 24 24" fill="none" xmlns="http://www.w3.org/2000/svg">
<path d="M16.0397 7.49999C15.2484 3.82499 13.5609 1.49999 12.0002 1.49999C10.4394 1.49999 8.75194 3.82499 7.96069 7.49999H16.0397ZM7.50019 12C7.50001 13.0033 7.5669 14.0056 7.70044 15H16.2999C16.4335 14.0056 16.5004 13.0033 16.5002 12C16.5004 10.9966 16.4335 9.99441 16.2999 8.99999H7.70044C7.5669 9.99441 7.50001 10.9966 7.50019 12ZM7.96069 16.5C8.75194 20.175 10.4394 22.5 12.0002 22.5C13.5609 22.5 15.2484 20.175 16.0397 16.5H7.96069ZM17.5757 7.49999H22.3007C21.5907 5.88431 20.512 4.4575 19.1511 3.33399C17.7901 2.21048 16.1848 1.42156 14.4639 1.03049C15.8867 2.28224 17.0027 4.59674 17.5757 7.49999ZM22.8399 8.99999H17.8149C17.9387 9.99519 18.0005 10.9971 18.0002 12C18.0003 13.0029 17.9382 14.0048 17.8142 15H22.8392C23.3861 13.0374 23.3869 10.9626 22.8399 8.99999ZM14.4639 22.9695C16.1851 22.5786 17.7907 21.7898 19.1519 20.6663C20.5132 19.5428 21.5921 18.1158 22.3022 16.5H17.5772C17.0027 19.4032 15.8867 21.7177 14.4639 22.9695ZM6.42469 16.5H1.69969C2.40978 18.1158 3.48872 19.5428 4.84994 20.6663C6.21116 21.7898 7.81677 22.5786 9.53794 22.9695C8.11369 21.7177 6.99769 19.4032 6.42469 16.5ZM9.53644 1.03049C7.81527 1.42134 6.20966 2.21017 4.84844 3.33369C3.48722 4.45721 2.40828 5.88414 1.69819 7.49999H6.42319C6.99769 4.59674 8.11369 2.28224 9.53644 1.03049ZM6.00019 12C6.00009 10.9971 6.06221 9.99518 6.18619 8.99999H1.16119C0.614239 10.9626 0.614239 13.0374 1.16119 15H6.18619C6.06221 14.0048 6.00009 13.0029 6.00019 12Z" fill="#1A1A1A"/>
</svg>
