<svg width="75" height="75" viewBox="0 0 75 75" fill="none" xmlns="http://www.w3.org/2000/svg">
<path d="M68.8508 69.6329C68.7501 69.6355 68.6499 69.618 68.5561 69.5815C68.4622 69.5449 68.3766 69.49 68.3042 69.4199L52.4882 54.3228L38.0717 69.3944C37.9978 69.4717 37.909 69.5332 37.8107 69.5752C37.7124 69.6172 37.6066 69.6388 37.4996 69.6388C37.3927 69.6388 37.2869 69.6172 37.1886 69.5752C37.0903 69.5332 37.0015 69.4717 36.9276 69.3944L22.5112 54.3228L6.69522 69.4199C6.58307 69.5269 6.44197 69.5987 6.28942 69.6263C6.13687 69.6538 5.97959 69.636 5.83708 69.575C5.69457 69.514 5.5731 69.4125 5.48775 69.2831C5.40239 69.1537 5.35691 69.0021 5.35693 68.847C5.35693 68.847 5.35741 36.0401 5.35852 36.0203C5.37151 35.8213 5.4589 35.6345 5.60331 35.497L36.95 5.57502C37.2529 5.28589 37.7503 5.2832 38.0511 5.5766L69.3982 35.4988C69.5428 35.6371 69.6296 35.8251 69.6412 36.0249C69.6422 36.0401 69.6426 68.8032 69.6426 68.8472C69.6425 69.308 69.2546 69.624 68.8508 69.6329ZM23.6565 53.2296L37.4996 67.7019L51.3428 53.2296L37.4996 40.0155L23.6565 53.2296ZM53.5826 53.1786L68.0591 66.9972V38.0441L53.5826 53.1786ZM6.94017 38.0441V66.997L21.4166 53.1786L6.94017 38.0441ZM38.2913 38.5824L52.4372 52.0853L67.7309 36.0965L38.2913 7.99507V38.5824ZM7.2684 36.0965L22.5621 52.0853L36.7079 38.5824V7.99507L7.2684 36.0965Z" fill="#1A1A1A"/>
</svg>
