<svg width="75" height="75" viewBox="0 0 75 75" fill="none" xmlns="http://www.w3.org/2000/svg">
<path d="M38.0036 72.9999C37.7877 72.9999 37.5806 72.9141 37.4279 72.7614L31.7293 67.0627C31.6537 66.9872 31.5938 66.8975 31.5529 66.7987C31.5119 66.7 31.4909 66.5942 31.4909 66.4873C31.4909 66.3804 31.5119 66.2746 31.5529 66.1759C31.5938 66.0771 31.6537 65.9874 31.7293 65.9119L65.3434 32.3018L60.7959 27.7548L27.1827 61.3654C27.1071 61.441 27.0174 61.5009 26.9186 61.5418C26.8198 61.5828 26.7139 61.6038 26.607 61.6038C26.5001 61.6038 26.3943 61.5828 26.2955 61.5418C26.1967 61.5009 26.107 61.441 26.0314 61.3654L20.3334 55.668C20.2578 55.5924 20.1979 55.5027 20.1569 55.404C20.116 55.3053 20.095 55.1994 20.095 55.0926C20.095 54.9857 20.116 54.8799 20.1569 54.7811C20.1979 54.6824 20.2578 54.5927 20.3334 54.5171L53.9468 20.9064L49.4 16.3601L15.7861 49.97C15.6335 50.1226 15.4265 50.2083 15.2106 50.2084C14.9947 50.2084 14.7877 50.1227 14.635 49.9701L8.93637 44.2728C8.78373 44.1201 8.69797 43.9131 8.69794 43.6973C8.69791 43.4814 8.78361 43.2744 8.9362 43.1217L42.5504 9.511L38.0036 4.96482L4.38956 38.5746C4.2369 38.7272 4.02986 38.813 3.81398 38.813C3.5981 38.813 3.39106 38.7272 3.23841 38.5746C3.08576 38.4219 3 38.2149 3 37.9991C3 37.7832 3.08576 37.5762 3.23841 37.4235L37.4281 3.23819C37.5808 3.0856 37.7878 2.99988 38.0037 2.99988C38.2195 2.99988 38.4266 3.0856 38.5793 3.23819L44.2772 8.93556C44.4299 9.0882 44.5156 9.29522 44.5156 9.51108C44.5156 9.72694 44.4299 9.93396 44.2772 10.0866L10.6632 43.6972L15.2106 48.2435L48.8248 14.6336C48.9775 14.481 49.1845 14.3953 49.4003 14.3953C49.6162 14.3953 49.8232 14.481 49.9758 14.6336L55.6738 20.331C55.8264 20.4836 55.9122 20.6906 55.9122 20.9065C55.9122 21.1223 55.8264 21.3293 55.6738 21.482L22.0602 55.0926L26.607 59.6389L60.2206 26.0283C60.2962 25.9527 60.3859 25.8928 60.4846 25.8519C60.5834 25.8109 60.6892 25.7899 60.7961 25.7899C60.903 25.7899 61.0088 25.8109 61.1076 25.8519C61.2063 25.8928 61.296 25.9527 61.3716 26.0283L67.0702 31.7263C67.1458 31.8019 67.2058 31.8917 67.2467 31.9904C67.2876 32.0892 67.3087 32.195 67.3087 32.3019C67.3087 32.4088 67.2876 32.5147 67.2467 32.6135C67.2058 32.7122 67.1458 32.802 67.0702 32.8775L33.4561 66.4873L38.0036 71.0348L71.6178 37.4235C71.7711 37.2741 71.9771 37.1911 72.1912 37.1925C72.4053 37.1938 72.6103 37.2795 72.7616 37.4309C72.913 37.5823 72.9986 37.7872 73 38.0013C73.0013 38.2153 72.9183 38.4213 72.7688 38.5746L38.5791 72.7614C38.5035 72.837 38.4138 72.897 38.3151 72.9379C38.2163 72.9788 38.1105 72.9999 38.0036 72.9999Z" fill="#1A1A1A"/>
</svg>
