<svg width="45" height="45" viewBox="0 0 45 45" fill="none" xmlns="http://www.w3.org/2000/svg">
<path d="M7.25684 42.4118L7.18524 42.3961C4.87818 41.8433 3.52156 39.2957 4.3114 37.0491L4.31149 37.0491L4.31445 37.0401L6.1592 31.4584C6.23355 31.4061 6.3004 31.3432 6.35739 31.2711L6.3575 31.2712L6.36472 31.2616C7.08054 30.3104 8.36936 29.9634 9.61854 30.1818L9.62038 30.1821C10.0612 30.2575 10.486 30.407 10.8768 30.6244C10.8772 30.6246 10.8775 30.6248 10.8779 30.625L14.3511 32.5813L11.9534 39.7641C11.2806 41.6707 9.23358 42.8464 7.25684 42.4118ZM11.1171 23.983L11.1172 23.9837C9.84539 24.523 8.81753 25.2613 7.91428 26.1454L13.6599 8.75819C13.8579 8.19263 14.1073 7.64669 14.4062 7.12974C15.574 5.12755 17.4439 3.63057 19.6532 2.92934C21.6094 2.30883 23.6613 2.39918 25.6376 2.95597C24.9857 3.31853 24.4684 3.81601 23.9907 4.51196L23.9907 4.51192L23.986 4.51902C23.6251 5.06441 23.3393 5.65587 23.1363 6.27747C23.1361 6.27803 23.1359 6.27859 23.1357 6.27914L17.5273 23.0688C15.367 22.8456 13.1341 23.1281 11.1171 23.983Z" stroke="#1A1A1A"/>
<path d="M8.67907 28.1879C10.6603 25.7204 14.2892 24.4661 18.0418 25.0444C20.3642 25.4684 22.3093 26.5774 24.4023 27.7708C24.6708 27.9239 24.9418 28.0784 25.2163 28.233C28.5869 30.1314 31.9332 32.0707 35.283 34.0119C36.3002 34.6014 37.3178 35.1911 38.3365 35.7799L8.67907 28.1879ZM8.67907 28.1879C8.74874 28.1856 8.81849 28.1846 8.88827 28.1848C9.15769 28.1849 9.42301 28.2057 9.68246 28.2405C10.4727 28.3306 11.2365 28.5795 11.928 28.9724C11.9283 28.9726 11.9286 28.9728 11.9289 28.9729L34.7055 41.8042C34.7061 41.8045 34.7067 41.8048 34.7073 41.8052C36.6539 42.8814 39.0178 42.6417 40.2675 40.8352L40.3954 40.6374C40.7169 40.1156 40.9185 39.529 40.9858 38.9199C41.0532 38.3091 40.9838 37.6909 40.7826 37.1103L40.7804 37.1039L40.7804 37.1039L40.6449 36.6952C40.1982 36.7852 39.7522 36.6136 39.4412 36.4576C39.2148 36.344 38.9976 36.2068 38.8112 36.085C38.76 36.0516 38.7121 36.02 38.667 35.9903C38.5381 35.9052 38.432 35.8352 38.3366 35.78L8.67907 28.1879ZM41.0728 36.5172C41.0733 36.5168 41.0738 36.5165 41.0742 36.5162L40.9291 35.9695V36.2983L40.7971 36.1L40.9291 36.2997V36.4689H40.931V36.3025L41.0728 36.5172ZM39.7323 34.3293L29.4877 28.4019L23.7101 10.9297L24.6396 8.1471L24.6397 8.14698C24.7104 7.93519 24.7744 7.73006 24.8366 7.53099C24.9958 7.02161 25.1425 6.55189 25.3558 6.1118C25.632 5.54171 25.9943 5.08648 26.5806 4.7906L26.6148 4.77452C27.041 4.57403 27.5101 4.48187 27.9806 4.5062C28.4501 4.53049 28.9063 4.67007 29.309 4.91259C29.9103 5.28545 30.3753 5.89267 30.7091 6.58908C30.7875 6.75273 30.978 7.26263 31.2632 8.07684C31.5432 8.87624 31.9039 9.93739 32.3186 11.1753C33.1478 13.6507 34.1905 16.8267 35.2302 20.0157C36.5564 24.0832 37.8787 28.1752 38.7447 30.8551C39.2146 32.3094 39.5502 33.3478 39.679 33.7408C39.6812 33.7555 39.6836 33.7701 39.6864 33.7846C39.7094 33.9955 39.7239 34.1757 39.7323 34.3293Z" stroke="#1A1A1A"/>
</svg>
