<svg width="45" height="45" viewBox="0 0 45 45" fill="none" xmlns="http://www.w3.org/2000/svg">
<g clip-path="url(#clip0_1_28795)">
<path d="M44.9883 21.7659C44.9876 21.7475 44.9852 21.7292 44.9839 21.7104C44.784 15.9206 42.4038 10.5081 38.2562 6.43834C34.0247 2.28656 28.4291 0 22.5 0C16.4901 0 10.8397 2.34044 6.59004 6.59004C2.34053 10.8397 0 16.4901 0 22.5C0 25.5628 2.49188 28.0547 5.55469 28.0547C8.61768 28.0547 11.1092 25.5628 11.1092 22.5C11.1092 13.8832 18.1195 6.87305 26.7362 6.87305C35.2798 6.87305 42.1418 13.5599 42.3581 22.0959C42.3581 22.1 42.3588 22.1041 42.3591 22.1083C42.3615 22.2387 42.3633 22.3699 42.3633 22.5C42.3633 33.4527 33.4527 42.3633 22.5 42.3633C21.7718 42.3633 21.1816 42.9535 21.1816 43.6816C21.1816 44.4098 21.7718 45 22.5 45C28.5099 45 34.1603 42.6596 38.41 38.41C42.6595 34.1603 45 28.5099 45 22.5C45 22.2556 44.9962 22.0087 44.9883 21.7659Z" fill="#1A1A1A"/>
</g>
<defs>
<clipPath id="clip0_1_28795">
<rect width="45" height="45" fill="white"/>
</clipPath>
</defs>
</svg>
