<svg width="45" height="45" viewBox="0 0 45 45" fill="none" xmlns="http://www.w3.org/2000/svg">
<g clip-path="url(#clip0_1_28749)">
<path d="M20.3248 0.000152588V13.7493L24.5847 7.11323L20.3248 0.000152588ZM24.6752 45.0002V31.2509L20.4153 37.887L24.6752 45.0002ZM31.9623 1.98914L25.0341 13.8467L32.0518 10.2892L31.9623 1.98914ZM13.0377 43.0111L19.9659 31.1535L12.9482 34.711L13.0377 43.0111ZM36.9489 16.9746L41.1281 9.81446L29.11 16.3937L36.9489 16.9746ZM8.05114 28.0256L3.87193 35.1857L15.89 28.6065L8.05114 28.0256ZM37.621 25.7361L45 22.0008L31.3513 20.9749L37.621 25.7361ZM7.37903 19.2641L0 22.9995L13.6487 24.0252L7.37903 19.2641ZM34.0584 32.8129L42.3118 33.2239L30.9465 25.563L34.0584 32.8129ZM14.0535 19.4373L10.9416 12.1874L2.68821 11.7763L14.0535 19.4373ZM27.9667 37.0254L35.086 41.2401L28.5637 29.1527L27.9667 37.0254ZM17.0333 7.97486L9.91396 3.76006L16.4363 15.8476L17.0333 7.97486Z" fill="#1A1A1A"/>
</g>
<defs>
<clipPath id="clip0_1_28749">
<rect width="45" height="45" fill="white"/>
</clipPath>
</defs>
</svg>
