<svg width="75" height="75" viewBox="0 0 75 75" fill="none" xmlns="http://www.w3.org/2000/svg">
<path d="M69.2167 67.3584C69.2156 67.3583 69.2146 67.3583 69.2135 67.3584H5.78305C5.64705 67.3584 5.5134 67.3229 5.39525 67.2556C5.27711 67.1882 5.17855 67.0912 5.10926 66.9742C5.03998 66.8572 5.00236 66.7241 5.00011 66.5881C4.99786 66.4521 5.03105 66.3179 5.09643 66.1987L20.7475 37.6792L5.09659 9.15976C5.03117 9.04052 4.99793 8.9063 5.00015 8.77031C5.00237 8.63432 5.03997 8.50126 5.10925 8.38422C5.17852 8.26718 5.27709 8.1702 5.39524 8.10283C5.51338 8.03545 5.64704 8.00002 5.78305 8H69.2135C69.4903 8 69.7464 8.14613 69.8875 8.38419C70.0286 8.62225 70.0333 8.91716 69.9002 9.15976L54.2493 37.6792L69.8688 66.1415C69.9473 66.2595 69.9924 66.3965 69.9991 66.5381C70.0059 66.6796 69.9741 66.8203 69.9071 66.9452C69.8402 67.0701 69.7406 67.1745 69.619 67.2473C69.4974 67.32 69.3584 67.3585 69.2167 67.3584ZM38.8214 65.7922H67.8906L53.3559 39.3069L38.8214 65.7922ZM7.10616 65.7922H36.1753L21.6407 39.3069L7.10616 65.7922ZM22.534 37.6792L37.4983 64.9476L52.4627 37.6792L37.4983 10.4108L22.534 37.6792ZM38.8214 9.56619L53.3561 36.0515L67.8906 9.56619H38.8214ZM7.10616 9.56619L21.6408 36.0515L36.1753 9.56619H7.10616Z" fill="#1A1A1A"/>
</svg>
