<svg width="45" height="45" viewBox="0 0 45 45" fill="none" xmlns="http://www.w3.org/2000/svg">
<path d="M21.1118 38.1618C18.4681 39.4862 15.1366 40.528 12.3794 40.4994L12.3794 40.4994C8.86416 40.462 6.18407 39.1331 4.38029 36.8991C2.56654 34.6526 1.60016 31.4416 1.63058 27.5867L1.63059 27.5846C1.66113 19.3996 4.99507 11.3744 10.7756 5.57487C14.3285 2.28998 19.2051 7.15429 15.9299 10.7155C11.4896 15.1702 8.93568 21.3211 8.90927 27.6117H8.90919L8.90931 27.6206C8.9277 28.9695 9.05474 30.0629 9.32653 30.9138C9.60061 31.772 10.0342 32.4196 10.6847 32.8129C11.3284 33.2021 12.109 33.2961 12.9846 33.2067C13.8593 33.1174 14.878 32.8401 16.0424 32.4319L16.5132 32.2669L16.3492 31.7957C15.139 28.3195 15.2923 23.9613 16.9119 18.9084C17.796 16.1531 19.0383 13.1319 21.6786 10.9671C24.7512 8.44961 29.8786 7.78006 33.1532 10.847L33.1532 10.8471L33.1586 10.852C35.8456 13.2958 36.1864 17.0758 35.2119 21.0123C34.2403 24.9375 31.9882 28.8737 29.7214 31.4319L28.4699 32.8442L30.2565 32.2369C32.7711 31.3821 34.9028 29.306 36.5488 26.3846L36.5499 26.3824C37.5283 24.626 39.7438 23.9941 41.4993 24.972C43.2557 25.9503 43.8877 28.1658 42.9098 29.9213L42.9097 29.9215C41.1775 33.0344 38.0663 37.0926 33.0562 38.9632C29.138 40.4243 24.8802 40.0641 21.5844 38.1751L21.3516 38.0417L21.1118 38.1618ZM28.2517 16.2134V16.0552L27.7452 16.0618C26.8155 16.0739 26.0641 16.6997 25.4861 17.488C24.8985 18.2894 24.4121 19.3607 24.0254 20.4899C23.2526 22.7464 22.8323 25.3711 22.8485 26.8741L22.8622 28.1413L23.7174 27.2061C25.7583 24.9744 27.3098 22.2832 28.1293 19.3885L28.1295 19.3876C28.3437 18.6259 28.4323 17.9886 28.4493 17.4921C28.4657 17.0127 28.4169 16.6228 28.3188 16.3798L28.2517 16.2134Z" stroke="#1A1A1A"/>
</svg>
