<svg width="75" height="75" viewBox="0 0 75 75" fill="none" xmlns="http://www.w3.org/2000/svg">
<path d="M54.2224 67.6268L54.2065 67.6266H21.7935C21.4911 67.6266 21.2091 67.4714 21.0617 67.2047L4.10901 37.7217C4.03759 37.5974 4 37.4566 4 37.3133C4 37.17 4.03759 37.0292 4.10901 36.905L21.0617 7.42196C21.1348 7.29272 21.2413 7.18543 21.3699 7.11123C21.4986 7.03703 21.6448 6.99864 21.7933 7.00004H54.2064C54.5079 7.00004 54.7913 7.15701 54.9382 7.42196L71.891 36.905C71.9624 37.0292 72 37.17 72 37.3133C72 37.4566 71.9624 37.5974 71.891 37.7217L54.9382 67.2045C54.7907 67.4611 54.5202 67.6268 54.2224 67.6268ZM23.1639 65.9881H52.8361L45.2207 52.1423H30.779L23.1639 65.9881ZM47.091 52.1423L54.2375 65.1362L61.709 52.1423H47.091ZM14.2908 52.1423L21.7623 65.1362L28.9089 52.1423H14.2908ZM46.1897 50.5037H61.6521L46.3166 23.8921L38.9349 37.3133L46.1897 50.5037ZM31.6802 50.5037H44.3195L37.9999 39.0133L31.6802 50.5037ZM14.3479 50.5037H29.8102L37.065 37.3133L29.6833 23.8921L14.3479 50.5037ZM47.2402 22.2129L63.0967 49.7287L70.2357 37.3133L54.2375 9.49048L47.2402 22.2129ZM5.76428 37.3133L12.9031 49.7288L28.7596 22.213L21.7623 9.49064L5.76428 37.3133ZM30.64 22.2317L37.9999 35.6133L45.3598 22.2317L37.9999 9.46017L30.64 22.2317ZM39.4178 8.63859L46.2833 20.5525L52.8361 8.63859H39.4178ZM23.1639 8.63859L29.7165 20.5525L36.5822 8.63859H23.1639Z" fill="#1A1A1A"/>
</svg>
