<svg width="75" height="75" viewBox="0 0 75 75" fill="none" xmlns="http://www.w3.org/2000/svg">
<path d="M54.2217 66.6772H21.7782C21.6373 66.6772 21.4987 66.6409 21.376 66.5717C21.2532 66.5025 21.1504 66.4027 21.0774 66.2821L4.11836 38.2628C4.04093 38.1349 4 37.9882 4 37.8386C4 37.689 4.04093 37.5423 4.11836 37.4144L21.0774 9.39506C21.1504 9.2745 21.2532 9.17481 21.376 9.10561C21.4988 9.0364 21.6373 9.00003 21.7782 9H54.2217C54.3626 9.00001 54.5011 9.03638 54.6239 9.10559C54.7467 9.17479 54.8495 9.27449 54.9225 9.39506L71.8815 37.4144C71.959 37.5423 72 37.689 72 37.8386C72 37.9882 71.959 38.1349 71.8815 38.2628L54.9225 66.2821C54.8495 66.4027 54.7467 66.5024 54.6239 66.5717C54.5011 66.6409 54.3626 66.6772 54.2217 66.6772ZM22.2401 65.0386H53.7599L70.2232 37.8386L53.7599 10.6386H22.2401L5.7769 37.8386L22.2401 65.0386ZM50.5152 62.9906C50.3741 62.9908 50.2354 62.9545 50.1125 62.8852C49.9895 62.816 49.8866 62.7161 49.8136 62.5954L35.0871 38.2641C35.0097 38.1362 34.9687 37.9895 34.9687 37.8399C34.9687 37.6904 35.0097 37.5436 35.0871 37.4157L49.8136 13.0844C49.9276 12.9016 50.109 12.7711 50.3185 12.721C50.528 12.671 50.7488 12.7055 50.9331 12.817C51.1174 12.9286 51.2503 13.1082 51.3031 13.3171C51.3559 13.5259 51.3243 13.7471 51.2152 13.9329L36.7455 37.8399L51.2152 61.7469C51.2904 61.8712 51.3313 62.0131 51.3336 62.1583C51.3359 62.3035 51.2996 62.4467 51.2284 62.5732C51.1572 62.6997 51.0536 62.805 50.9283 62.8784C50.803 62.9517 50.6604 62.9905 50.5152 62.9906ZM29.8694 62.9893C29.7283 62.9895 29.5896 62.9532 29.4667 62.8839C29.3437 62.8147 29.2408 62.7148 29.1678 62.5941L14.4413 38.2628C14.3638 38.1349 14.3229 37.9882 14.3229 37.8386C14.3229 37.689 14.3638 37.5423 14.4413 37.4144L29.1678 13.0831C29.2235 12.9911 29.2968 12.9109 29.3834 12.8472C29.4701 12.7834 29.5685 12.7374 29.673 12.7117C29.7775 12.686 29.886 12.6812 29.9923 12.6975C30.0987 12.7137 30.2008 12.7508 30.2928 12.8065C30.3849 12.8622 30.465 12.9355 30.5287 13.0222C30.5925 13.1089 30.6385 13.2073 30.6642 13.3118C30.6898 13.4162 30.6947 13.5247 30.6784 13.6311C30.6622 13.7374 30.6251 13.8395 30.5694 13.9316L16.0998 37.8386L30.5696 61.7456C30.6448 61.8699 30.6857 62.0118 30.688 62.157C30.6903 62.3022 30.6539 62.4454 30.5827 62.5719C30.5115 62.6985 30.4079 62.8038 30.2825 62.8771C30.1572 62.9505 30.0146 62.9892 29.8694 62.9893ZM40.2128 62.988C40.0717 62.9882 39.933 62.9519 39.81 62.8826C39.6871 62.8134 39.5842 62.7135 39.5112 62.5928L24.7847 38.2615C24.7072 38.1336 24.6663 37.9868 24.6663 37.8373C24.6663 37.6877 24.7072 37.541 24.7847 37.4131L39.5112 13.0818C39.6252 12.899 39.8065 12.7685 40.0161 12.7184C40.2256 12.6684 40.4464 12.7029 40.6307 12.8144C40.8149 12.926 40.9479 13.1056 41.0007 13.3144C41.0535 13.5233 41.0219 13.7445 40.9128 13.9303L26.4432 37.8373L40.913 61.7443C40.9882 61.8685 41.029 62.0105 41.0313 62.1557C41.0337 62.3009 40.9973 62.4441 40.9261 62.5706C40.8549 62.6972 40.7513 62.8025 40.6259 62.8758C40.5006 62.9492 40.358 62.9879 40.2128 62.988Z" fill="#1A1A1A"/>
</svg>
