<svg width="45" height="45" viewBox="0 0 45 45" fill="none" xmlns="http://www.w3.org/2000/svg">
<g clip-path="url(#clip0_1_28822)">
<path d="M42.4733 20.0092L42.4743 20.0102C43.8503 21.3785 43.8517 23.6209 42.4733 24.9993L42.4712 25.0014C41.8109 25.6694 40.9263 26.035 39.9827 26.035C35.9662 26.035 32.0031 25.3861 28.1977 24.0972L28.1968 24.0969L26.4014 23.4925L26.4 23.492C26.0796 23.3852 25.7832 23.5595 25.6722 23.8112C25.5614 24.0623 25.6316 24.4018 25.9314 24.5653L25.9401 24.57L25.9491 24.5745L27.6555 25.4188L27.6559 25.419C31.2598 27.199 34.5215 29.5401 37.3627 32.3813C38.0423 33.0609 38.4139 33.9622 38.3984 34.9171V34.9171C38.3673 36.8471 36.7526 38.4215 34.8248 38.3981L34.823 38.3981C33.908 38.3904 33.0461 38.0271 32.3815 37.3625C29.5403 34.5212 27.1992 31.2595 25.4192 27.6556L25.4191 27.6553L24.5768 25.9531C24.5077 25.8085 24.3835 25.6974 24.2279 25.6485C24.0797 25.6019 23.9344 25.6207 23.8196 25.6699C23.5846 25.7706 23.3783 26.0578 23.4922 26.3998L23.4927 26.4012L24.0971 28.1965L24.0974 28.1974C25.3863 32.0028 26.0352 35.966 26.0352 39.9824C26.0352 40.9244 25.6708 41.8018 24.9995 42.473L24.9975 42.4751C24.3372 43.1432 23.4526 43.5087 22.509 43.5087C21.567 43.5087 20.6896 43.1443 20.0184 42.473L20.0163 42.471C19.3482 41.8107 18.9827 40.926 18.9827 39.9824C18.9827 35.966 19.6316 32.0028 20.9205 28.1974L20.9208 28.1965L21.5252 26.4012L21.5257 26.3998C21.6325 26.0793 21.4581 25.783 21.2065 25.672C20.9553 25.5612 20.6159 25.6314 20.4524 25.9311L20.4476 25.9399L20.4432 25.9488L19.5989 27.6553L19.5987 27.6556C17.8187 31.2595 15.4776 34.5212 12.6364 37.3625C11.9568 38.0421 11.0555 38.4137 10.1006 38.3982H10.1006C8.17055 38.367 6.59622 36.7523 6.61955 34.8246L6.61956 34.8228C6.62732 33.9078 6.9906 33.0459 7.65523 32.3813C10.4964 29.5401 13.7582 27.199 17.3621 25.419L17.3624 25.4188L19.0645 24.5766C19.2092 24.5075 19.3202 24.3833 19.3692 24.2277C19.4158 24.0795 19.397 23.9341 19.3478 23.8194C19.2471 23.5844 18.9599 23.378 18.6179 23.492L18.6165 23.4925L16.8211 24.0969L16.8202 24.0972C13.0149 25.3861 9.05171 26.035 5.03525 26.035C4.09333 26.035 3.2159 25.6706 2.54466 24.9993C1.16675 23.6214 1.16675 21.3871 2.54467 20.0092L2.54672 20.0072C3.20702 19.3391 4.09164 18.9736 5.03525 18.9736C9.05171 18.9736 13.0149 19.6225 16.8202 20.9114L16.8211 20.9117L18.6165 21.5161L18.6179 21.5166C18.9384 21.6234 19.2347 21.449 19.3457 21.1974C19.4565 20.9462 19.3863 20.6068 19.0866 20.4433L19.0778 20.4385L19.0689 20.4341L17.3624 19.5897L17.3621 19.5896C13.7582 17.8095 10.4964 15.4685 7.65523 12.6273C6.97563 11.9477 6.60399 11.0463 6.61952 10.0915L6.61954 10.0894C6.64286 8.16212 8.25533 6.58707 10.1931 6.61042L10.1949 6.61043C11.1099 6.61819 11.9718 6.98147 12.6364 7.6461C15.4776 10.4873 17.8187 13.749 19.5987 17.3529L19.5989 17.3532L20.4411 19.0554C20.5102 19.2 20.6344 19.3111 20.79 19.3601C20.9382 19.4067 21.0835 19.3879 21.1983 19.3387C21.4333 19.238 21.6397 18.9507 21.5257 18.6088L21.5252 18.6074L20.9208 16.812L20.9205 16.8111C19.6316 13.0057 18.9827 9.04258 18.9827 5.02612C18.9827 4.0842 19.3471 3.20677 20.0184 2.53553L20.0204 2.53346C20.6807 1.86539 21.5653 1.49988 22.509 1.49988C23.4509 1.49988 24.3283 1.86428 24.9995 2.53553L25.0016 2.53759C25.6697 3.19789 26.0352 4.08251 26.0352 5.02612C26.0352 9.04258 25.3863 13.0057 24.0974 16.8111L24.0971 16.812L23.4927 18.6074L23.4922 18.6088C23.3854 18.9292 23.5598 19.2255 23.8114 19.3366C24.0626 19.4474 24.402 19.3772 24.5655 19.0774L24.5703 19.0687L24.5747 19.0597L25.4191 17.3532L25.4192 17.3529C27.1992 13.749 29.5403 10.4873 32.3815 7.6461C33.0611 6.9665 33.9624 6.59486 34.9173 6.61038L34.9174 6.61039C36.8474 6.64151 38.4217 8.25621 38.3984 10.184L38.3984 10.1858C38.3906 11.1008 38.0273 11.9626 37.3627 12.6273C34.5215 15.4685 31.2598 17.8095 27.6559 19.5896L27.6555 19.5897L25.9534 20.4319C25.8088 20.5011 25.6977 20.6253 25.6487 20.7809C25.6021 20.929 25.6209 21.0744 25.6701 21.1892C25.7708 21.4242 26.0581 21.6305 26.4 21.5166L26.4014 21.5161L28.1968 20.9117L28.1977 20.9114C32.0031 19.6225 35.9662 18.9736 39.9827 18.9736C40.9246 18.9736 41.802 19.338 42.4733 20.0092ZM34.8188 38.8981C37.023 38.9248 38.8628 37.1294 38.8983 34.9252L34.8188 38.8981ZM6.11958 34.8185C6.09292 37.0227 7.88828 38.8626 10.0925 38.8981L6.11958 34.8185Z" stroke="#1A1A1A"/>
</g>
<defs>
<clipPath id="clip0_1_28822">
<rect width="45" height="45" fill="white"/>
</clipPath>
</defs>
</svg>
