<svg width="75" height="75" viewBox="0 0 75 75" fill="none" xmlns="http://www.w3.org/2000/svg">
<path d="M67.1632 67.8955C67.067 67.8956 66.9718 67.8768 66.8829 67.8399C66.794 67.8031 66.7133 67.7491 66.6454 67.6809L52.0021 53.0377L38.018 67.0217C37.95 67.0898 37.8692 67.1438 37.7804 67.1806C37.6915 67.2174 37.5963 67.2364 37.5001 67.2364C37.4039 67.2364 37.3086 67.2174 37.2198 67.1806C37.1309 67.1438 37.0502 67.0898 36.9822 67.0217L22.9982 53.0377L8.35502 67.6809C8.28734 67.7503 8.20654 67.8056 8.11732 67.8436C8.02809 67.8816 7.93222 67.9014 7.83526 67.9021C7.7383 67.9027 7.64218 67.884 7.55247 67.8472C7.46277 67.8104 7.38127 67.7561 7.3127 67.6876C7.24413 67.619 7.18986 67.5375 7.15303 67.4478C7.1162 67.3581 7.09755 67.262 7.09816 67.1651C7.09877 67.0681 7.11862 66.9722 7.15657 66.883C7.19452 66.7938 7.24981 66.713 7.31923 66.6453L21.9624 52.0019L7.97841 38.0178C7.84106 37.8805 7.7639 37.6942 7.7639 37.4999C7.7639 37.3057 7.84106 37.1194 7.97841 36.982L21.9624 22.998L7.31923 8.35488C7.25073 8.28698 7.19632 8.20621 7.15912 8.11722C7.12191 8.02823 7.10265 7.93277 7.10244 7.83632C7.10223 7.73987 7.12107 7.64432 7.15788 7.55517C7.1947 7.46602 7.24876 7.38502 7.31696 7.31682C7.38516 7.24861 7.46616 7.19455 7.55532 7.15774C7.64447 7.12093 7.74001 7.10209 7.83646 7.1023C7.93292 7.10251 8.02838 7.12177 8.11737 7.15897C8.20636 7.19618 8.28712 7.25059 8.35502 7.31909L22.9982 21.9623L36.9822 7.97827C37.1195 7.84092 37.3058 7.76375 37.5001 7.76375C37.6943 7.76375 37.8806 7.84092 38.018 7.97827L52.0021 21.9623L66.6454 7.31909C66.7834 7.18462 66.9687 7.10991 67.1614 7.11114C67.354 7.11237 67.5384 7.18946 67.6746 7.32568C67.8108 7.46191 67.8879 7.64632 67.8891 7.83896C67.8903 8.0316 67.8155 8.21696 67.6811 8.35488L53.038 22.998L67.022 36.982C67.1594 37.1194 67.2365 37.3057 67.2365 37.4999C67.2365 37.6942 67.1594 37.8805 67.022 38.0178L53.038 52.0019L67.6812 66.6453C67.7838 66.7476 67.8536 66.8782 67.8819 67.0203C67.9103 67.1624 67.8958 67.3097 67.8403 67.4436C67.7848 67.5775 67.6909 67.6919 67.5704 67.7723C67.4498 67.8528 67.3081 67.8956 67.1632 67.8955ZM24.0341 52.0019L37.5001 65.4681L50.9663 52.0019L37.5001 38.5358L24.0341 52.0019ZM38.5361 37.5L52.0021 50.9662L65.4683 37.5L52.0021 24.0338L38.5361 37.5ZM9.53217 37.5L22.9982 50.9662L36.4643 37.5L22.9982 24.0338L9.53217 37.5ZM24.0341 22.998L37.5001 36.4642L50.9663 22.998L37.5001 9.53188L24.0341 22.998Z" fill="#1A1A1A"/>
</svg>
