<svg width="45" height="45" viewBox="0 0 45 45" fill="none" xmlns="http://www.w3.org/2000/svg">
<path d="M28.4326 28.4326C28.4326 34.9857 23.1204 40.2979 16.5674 40.2979C10.0143 40.2979 4.70215 34.9857 4.70215 28.4326H28.4326ZM16.5674 4.70215C10.0143 4.70215 4.70215 10.0143 4.70215 16.5674C4.70215 23.1204 10.0143 28.4326 16.5674 28.4326V4.70215ZM40.2979 16.5674C40.2979 10.0143 34.9857 4.70215 28.4326 4.70215C21.8796 4.70215 16.5674 10.0143 16.5674 16.5674H40.2979ZM28.4326 40.2979C34.9857 40.2979 40.2979 34.9857 40.2979 28.4326C40.2979 21.8796 34.9857 16.5674 28.4326 16.5674V40.2979Z" fill="white"/>
</svg>
