<svg width="45" height="45" viewBox="0 0 45 45" fill="none" xmlns="http://www.w3.org/2000/svg">
<path d="M42.6003 19.6875C41.8445 18.9316 40.8513 18.5186 39.7878 18.5186C35.7625 18.5186 31.7898 19.1689 27.9753 20.4609L26.2 21.0586C26.0945 21.0937 26.033 20.9443 26.1296 20.9004L27.8171 20.0654C31.4294 18.2812 34.699 15.9346 37.5466 13.0869C38.2937 12.3398 38.7068 11.3643 38.7156 10.3271C38.7419 8.14746 36.9666 6.32812 34.7869 6.29297C33.7058 6.27539 32.6863 6.69727 31.9216 7.46191C29.074 10.3096 26.7273 13.5791 24.9431 17.1914L24.1082 18.8789C24.0554 18.9756 23.9148 18.9141 23.95 18.8086L24.5476 17.0332C25.8396 13.2187 26.49 9.24609 26.49 5.2207C26.49 4.15723 26.0769 3.15527 25.321 2.4082C24.5652 1.65234 23.572 1.23926 22.5085 1.23926C21.4451 1.23926 20.4431 1.65234 19.696 2.4082C18.9402 3.16406 18.5271 4.15723 18.5271 5.2207C18.5271 9.24609 19.1775 13.2187 20.4695 17.0332L21.0671 18.8086C21.1023 18.9141 20.9529 18.9756 20.9089 18.8789L20.074 17.1914C18.2898 13.5791 15.9431 10.3096 13.0955 7.46191C12.3484 6.71484 11.3728 6.30176 10.3357 6.29297C8.14722 6.2666 6.32788 8.04199 6.30151 10.2217C6.28394 11.3027 6.70581 12.3223 7.47046 13.0869C10.3181 15.9346 13.5876 18.2812 17.2 20.0654L18.8874 20.9004C18.9841 20.9531 18.9226 21.0937 18.8171 21.0586L17.0417 20.4609C13.2273 19.1689 9.25464 18.5186 5.22925 18.5186C4.16577 18.5186 3.16382 18.9316 2.41675 19.6875C0.861084 21.2432 0.861084 23.7656 2.41675 25.3213C3.17261 26.0771 4.16577 26.4902 5.22925 26.4902C9.25464 26.4902 13.2273 25.8398 17.0417 24.5478L18.8171 23.9502C18.9226 23.915 18.9841 24.0644 18.8874 24.1084L17.2 24.9434C13.5876 26.7275 10.3181 29.0742 7.47046 31.9219C6.72339 32.6689 6.3103 33.6445 6.30151 34.6816C6.27515 36.8613 8.05054 38.6807 10.2302 38.7158C11.3113 38.7334 12.3308 38.3115 13.0955 37.5469C15.9431 34.6992 18.2898 31.4297 20.074 27.8174L20.9089 26.1299C20.9617 26.0332 21.1023 26.0947 21.0671 26.2002L20.4695 27.9756C19.1775 31.79 18.5271 35.7627 18.5271 39.7881C18.5271 40.8516 18.9402 41.8535 19.696 42.6006C20.4519 43.3564 21.4451 43.7695 22.5085 43.7695C23.572 43.7695 24.574 43.3564 25.321 42.6006C26.0769 41.8447 26.49 40.8516 26.49 39.7881C26.49 35.7627 25.8396 31.79 24.5476 27.9756L23.95 26.2002C23.9148 26.0947 24.0642 26.0332 24.1082 26.1299L24.9431 27.8174C26.7273 31.4297 29.074 34.6992 31.9216 37.5469C32.6687 38.2939 33.6443 38.707 34.6814 38.7158C36.8611 38.7422 38.6804 36.9668 38.7156 34.7871C38.7332 33.7061 38.3113 32.6865 37.5466 31.9219C34.699 29.0742 31.4294 26.7275 27.8171 24.9434L26.1296 24.1084C26.033 24.0557 26.0945 23.915 26.2 23.9502L27.9753 24.5478C31.7898 25.8398 35.7625 26.4902 39.7878 26.4902C40.8513 26.4902 41.8533 26.0771 42.6003 25.3213C44.156 23.7656 44.156 21.2344 42.6003 19.6875Z" fill="white"/>
</svg>
