<svg width="55" height="55" viewBox="0 0 55 55" fill="none" xmlns="http://www.w3.org/2000/svg">
<mask id="mask0_1_28654" style="mask-type:alpha" maskUnits="userSpaceOnUse" x="0" y="0" width="55" height="55">
<rect width="55" height="55" fill="#D9D9D9"/>
</mask>
<g mask="url(#mask0_1_28654)">
<path d="M28.1145 31.375C21.9354 28.2035 17.4249 21.7144 16.1541 13.885C14.8832 21.7144 10.3761 28.2035 4.19358 31.375C2.99349 31.9954 0 32.9442 0 32.9442C0 32.9442 2.99349 33.893 4.19696 34.5101C10.3761 37.685 14.8866 44.174 16.1574 52.0001C17.4283 44.1707 21.9354 37.6816 28.1179 34.5101C29.3214 33.893 32.3149 32.9442 32.3149 32.9442C32.3149 32.9442 29.3146 31.9954 28.1145 31.375Z" fill="#1A1A1A"/>
<path d="M52.3742 15.0467C48.5099 13.0406 45.6891 8.94827 44.8947 4C44.1003 8.94159 41.2795 13.0406 37.4151 15.0467C36.6611 15.4345 34.7896 16.0363 34.7896 16.0363C34.7896 16.0363 36.6611 16.6382 37.4151 17.026C41.2795 19.0321 44.1003 23.1244 44.8947 28.0727C45.6891 23.1311 48.5099 19.0321 52.3742 17.026C53.1282 16.6382 54.9998 16.0363 54.9998 16.0363C54.9998 16.0363 53.1215 15.4345 52.3742 15.0467Z" fill="#1A1A1A"/>
</g>
</svg>
