<svg width="60" height="60" viewBox="0 0 60 60" fill="none" xmlns="http://www.w3.org/2000/svg">
<path d="M57.0597 27.2279L33.2108 28.6666L51.0911 12.8194C51.1708 12.7505 51.2542 12.6636 51.3267 12.5838C52.3414 11.4387 52.2363 9.68473 51.0911 8.67004C49.946 7.65535 48.192 7.76044 47.1773 8.90559L31.33 26.7858L32.7687 2.93706C32.7759 2.83197 32.7759 2.70876 32.7687 2.60367C32.6781 1.07439 31.3626 -0.0888782 29.8333 0.00534265C28.304 0.0959396 27.1407 1.41141 27.2313 2.94069L28.67 26.7894L12.8227 8.90922C12.7538 8.82949 12.6669 8.74615 12.5871 8.67367C11.442 7.65898 9.68802 7.76407 8.67333 8.90922C7.65864 10.0544 7.76373 11.8083 8.90888 12.823L26.7892 28.6702L2.94031 27.2316C2.83522 27.2243 2.71201 27.2243 2.60691 27.2316C1.07763 27.3221 -0.0856453 28.6376 0.00495224 30.1669C0.0955498 31.6962 1.41103 32.8594 2.94031 32.7688L26.7892 31.3302L8.90888 47.1774C8.83278 47.2462 8.74581 47.3332 8.67333 47.4129C7.65864 48.5581 7.76373 50.312 8.90888 51.3267C10.054 52.3414 11.808 52.2363 12.8227 51.0912L28.67 33.211L27.2313 57.0597C27.2277 57.1648 27.2241 57.288 27.2313 57.3931C27.3219 58.9224 28.6374 60.0856 30.1667 59.995C31.696 59.9044 32.8593 58.589 32.7687 57.0597L31.33 33.211L47.1773 51.0912C47.2462 51.1709 47.3331 51.2543 47.4129 51.3267C48.558 52.3414 50.312 52.2363 51.3267 51.0912C52.3414 49.946 52.2363 48.1921 51.0911 47.1774L33.2108 31.3302L57.0597 32.7688C57.1648 32.7761 57.288 32.7761 57.3931 32.7688C58.9224 32.6782 60.0856 31.3628 59.995 29.8335C59.9008 28.3006 58.589 27.1373 57.0597 27.2279Z" fill="#B9FE38"/>
</svg>
